<svg xmlns="http://www.w3.org/2000/svg" width="601.216" height="765.121" viewBox="0 0 601.216 765.121">
  <defs>
    <style>
      .cls-1 {
        fill: #784931;
      }

      .cls-1, .cls-2, .cls-3, .cls-4, .cls-5, .cls-6, .cls-7 {
        fill-rule: evenodd;
      }

      .cls-2 {
        fill: #191847;
      }

      .cls-3 {
        fill: #2f3676;
      }

      .cls-4 {
        fill: #b28b67;
      }

      .cls-5 {
        fill: #c5cfd6;
      }

      .cls-6 {
        fill: #323337;
      }

      .cls-7 {
        fill: #dde3e9;
      }
    </style>
  </defs>
  <g id="Grupo_19" data-name="Grupo 19" transform="translate(-1146.318 -318.935)">
    <g id="humaaans_standing-17" data-name="humaaans/standing-17" transform="translate(1125.451 318)">
      <g id="humaaan-1" transform="translate(0 0)">
        <g id="Head_Front_Chongo" data-name="Head/Front/Chongo" transform="matrix(-0.966, -0.259, 0.259, -0.966, 420.848, 265.975)">
          <g id="Head" transform="translate(36.112 0)">
            <path id="Caminho_4" data-name="Caminho 4" class="cls-1" d="M19.889,91.881C8.8,104.786,1.289,120.6,2.544,138.322c3.615,51.06,75.326,39.827,89.275,14.057s12.292-91.139-5.737-95.745C78.893,54.8,63.577,59.3,47.989,68.608L57.773,0H0Z" transform="translate(0 0)"/>
          </g>
          <path id="hair" class="cls-2" d="M105.111,100.518c-7.894,2.386-19.354,3.2-24.175,2.648A40.881,40.881,0,0,1,83.88,124c-.862,6.864-3.957,12.709-6.819,18.834a25.736,25.736,0,0,1-5.043,7.79,17.272,17.272,0,0,1-8.159,4.345,22.024,22.024,0,0,1-9.4.007c-1.367-.285-2.593-.9-3.933-1.248-1.372-.353-2.038.5-3.034,1.354-2.4,2.062-5.92,3.08-8.958,3.444a23.293,23.293,0,0,1-10.194-1.211,19.972,19.972,0,0,1-8.489-5.393,14.1,14.1,0,0,1-2.544-3.864c-.246-.587-.287-.935-.878-1.15-.547-.2-1.186-.2-1.75-.394A21.947,21.947,0,0,1,2.022,135.139C.541,132.01-.161,126.5.031,120.327S5.848,98.042,11.109,92.165c4.7-5.245,11.6-8.707,18.26-10.222C24.948,76.934,22,70.674,19.828,64.308a85.628,85.628,0,0,1-4.368-21.422c-.513-6.956-.561-14.312,1.084-21.119,1.539-6.366,4.831-11.588,10.325-14.9a49.529,49.529,0,0,1,7.949-3.7,52.672,52.672,0,0,1,8.188-2.6c5.321-1.09,11.453-.9,15.552,3.3a28.972,28.972,0,0,1,4.18,5.264c.388.665.621,1.1.15,1.75a12.577,12.577,0,0,1-2.2,1.984,20.508,20.508,0,0,0-7.335,13.614c-.654,5.589.86,12.8,6.342,15.241,6.767,3.011,14.219-.445,20.234-3.667,2.556,8.942,7.8,16.993,16.033,21.095,9.1,4.538,19.55,5.069,28.905,8.962a17.272,17.272,0,0,1,6.716,4.233,8.616,8.616,0,0,1,1.929,3.127c.393,1.5-.582,2.759-1.338,3.929C128.176,85.6,113.005,98.133,105.111,100.518Z" transform="translate(0 79.928)"/>
        </g>
        <g id="Bottom_Standing_Skinny-Jeans" data-name="Bottom/Standing/Skinny-Jeans" transform="translate(74.969 430.945)">
          <path id="Leg" class="cls-2" d="M336.043,0,248.77,305.078,225.547,331.85H179.1L206.316,0Z" transform="translate(-44.772 0)"/>
          <path id="Leg-2" data-name="Leg" class="cls-3" d="M233.256,0c2.018,157.241,8.9,243,11.022,257.29s-17.736-89.658,44.24,77.82H214.324c-78.9-160.667-44.958-56.722-54.147-77.82S122.634,150.429,79.927,0Z" transform="translate(81.355)"/>
        </g>
        <g id="Body_Lab-Coat" data-name="Body/Lab-Coat" transform="translate(564.652 764.634) rotate(-170)">
          <path id="Skin" class="cls-4" d="M447.246,184.033l72.666-61.3q30.574-10.534,50.607-24.443c3.082-3.216,6.638-9.538-6.945-7.542s-27.956,3.485-30.167-1.018,5.665-10.622,1.416-16.609q-4.247-5.99-33.783,33.863L427.385,143.56ZM118.2,210.559l42.636-6.161Q92.188,56.187,87.23,47.634C79.793,34.8,88.54,12.454,91.959.622,74.679-4.342,80.2,22.223,58.348,15.6,38.405,9.549,21.948-4.162,2.2,12.143c-2.428,2-4.474,8.558,3.244,12.378C24.67,34.034,52.9,51.446,57.292,57.861Q66.27,70.985,118.2,210.559Z" transform="translate(0 120.166)"/>
          <path id="Coat-Back" class="cls-5" d="M0,260.3,25.56,271.26C69.025,185.64,129.782,104.433,225.085,39.689L206.391,0C124.2,38.987,47.076,68.112,11.029,134.251-1.071,156.449,1.593,232.629,0,260.3Z" transform="translate(273.712 244.371) rotate(-5)"/>
          <path id="Shirt" class="cls-6" d="M0,5.988q113.518-11.977,178.7,0c5.382.989,6.233,9.96,3.736,16.047-38.881,94.8-65.543,177.518-65.543,243.364q-10.7-5.369-37.456-1.609C31.5,195.934,9.466,118.077,0,5.988Z" transform="translate(205.662 246.974)"/>
          <path id="Coat-Front" class="cls-7" d="M214.859,516.451h19.978C239.489,489.228,254.16,120.589,299.452,0H54.385c5.313,110.471,47.224,243.173,89.679,354.218Q87.752,302.942,45.9,180.45L0,192.174Q51.2,411.7,210.519,514.872q.343.793.687,1.579h1.767q.977.623,1.958,1.242Z" transform="translate(58.323 0)"/>
        </g>
      </g>
    </g>
  </g>
</svg>
