<svg xmlns="http://www.w3.org/2000/svg" width="24.479" height="21.759" viewBox="0 0 24.479 21.759">
  <defs>
    <style>
      .cls-1 {
        fill: #fff;
      }
    </style>
  </defs>
  <path id="Icon_awesome-external-link-alt" data-name="Icon awesome-external-link-alt" class="cls-1" d="M24.479,1.02V6.459a1.021,1.021,0,0,1-1.741.721L21.22,5.663,10.871,16.012a1.02,1.02,0,0,1-1.442,0l-.962-.962a1.02,1.02,0,0,1,0-1.442L18.816,3.259,17.3,1.741A1.021,1.021,0,0,1,18.02,0h5.439A1.02,1.02,0,0,1,24.479,1.02ZM17.3,11.508l-.68.68a1.02,1.02,0,0,0-.3.721v6.13H2.72V5.44H13.939a1.02,1.02,0,0,0,.721-.3l.68-.68a1.02,1.02,0,0,0-.721-1.741H2.04A2.04,2.04,0,0,0,0,4.76V19.719a2.04,2.04,0,0,0,2.04,2.04H17a2.04,2.04,0,0,0,2.04-2.04v-7.49A1.02,1.02,0,0,0,17.3,11.508Z"/>
</svg>
