<svg xmlns="http://www.w3.org/2000/svg" width="28.892" height="28.201" viewBox="0 0 28.892 28.201">
  <defs>
    <style>
      .cls-1 {
        fill: #fff;
      }
    </style>
  </defs>
  <path id="Icon_metro-bug" data-name="Icon metro-bug" class="cls-1" d="M31.462,18.18V16.374H26.009a10.436,10.436,0,0,0-2.022-5.424h4.569l1.977-7.907L28.781,2.6,27.146,9.144H22.218l-.076-.058a5.417,5.417,0,1,0-10.25,0l-.076.058H6.887L5.252,2.6,3.5,3.043,5.477,10.95h4.569a10.435,10.435,0,0,0-2.022,5.424H2.571V18.18H8.027a10.622,10.622,0,0,0,.949,3.6h-3.5L3.5,29.691l1.752.438L6.887,23.59h3.17a8.717,8.717,0,0,0,6.959,3.6,8.717,8.717,0,0,0,6.959-3.6h3.17l1.635,6.539,1.752-.438-1.977-7.907h-3.5a10.621,10.621,0,0,0,.949-3.6h5.456Z" transform="translate(-2.571 -1.928)"/>
</svg>
